<mxfile host="app.diagrams.net" modified="2021-07-17T22:27:42.181Z" agent="5.0 (Windows)" etag="q2VC2xgtDKFqupN3iAHs" version="14.9.0" type="github" pages="4">
  <diagram id="Y5a2vj_OQzmGsMsnUOmU" name="Say hello">
    <mxGraphModel dx="1422" dy="781" grid="1" gridSize="10" guides="1" tooltips="1" connect="1" arrows="1" fold="1" page="1" pageScale="1" pageWidth="827" pageHeight="1169" math="0" shadow="0">
      <root>
        <mxCell id="0" />
        <mxCell id="1" parent="0" />
        <mxCell id="wNUS6FdOR8mtn1y2jUmh-1" value="Decision" style="strokeWidth=2;html=1;shape=mxgraph.flowchart.decision;whiteSpace=wrap;" parent="1" vertex="1">
          <mxGeometry x="40" y="40" width="100" height="100" as="geometry" />
        </mxCell>
        <mxCell id="wNUS6FdOR8mtn1y2jUmh-2" value="Process" style="rounded=1;whiteSpace=wrap;html=1;absoluteArcSize=1;arcSize=14;strokeWidth=2;" parent="1" vertex="1">
          <mxGeometry x="210" y="40" width="100" height="100" as="geometry" />
        </mxCell>
        <mxCell id="wNUS6FdOR8mtn1y2jUmh-4" value="Start" style="strokeWidth=2;html=1;shape=mxgraph.flowchart.start_2;whiteSpace=wrap;" parent="1" vertex="1">
          <mxGeometry x="364" y="40" width="100" height="100" as="geometry" />
        </mxCell>
        <mxCell id="wNUS6FdOR8mtn1y2jUmh-5" value="End" style="strokeWidth=2;html=1;shape=mxgraph.flowchart.terminator;whiteSpace=wrap;" parent="1" vertex="1">
          <mxGeometry x="530" y="60" width="100" height="60" as="geometry" />
        </mxCell>
        <mxCell id="wNUS6FdOR8mtn1y2jUmh-8" style="edgeStyle=orthogonalEdgeStyle;rounded=0;orthogonalLoop=1;jettySize=auto;html=1;" parent="1" source="wNUS6FdOR8mtn1y2jUmh-6" target="wNUS6FdOR8mtn1y2jUmh-7" edge="1">
          <mxGeometry relative="1" as="geometry" />
        </mxCell>
        <mxCell id="wNUS6FdOR8mtn1y2jUmh-6" value="Start" style="strokeWidth=2;html=1;shape=mxgraph.flowchart.start_2;whiteSpace=wrap;" parent="1" vertex="1">
          <mxGeometry x="314" y="230" width="100" height="100" as="geometry" />
        </mxCell>
        <mxCell id="wNUS6FdOR8mtn1y2jUmh-10" value="true" style="edgeStyle=orthogonalEdgeStyle;rounded=0;orthogonalLoop=1;jettySize=auto;html=1;entryX=1;entryY=0.5;entryDx=0;entryDy=0;" parent="1" source="wNUS6FdOR8mtn1y2jUmh-7" target="wNUS6FdOR8mtn1y2jUmh-9" edge="1">
          <mxGeometry relative="1" as="geometry" />
        </mxCell>
        <mxCell id="wNUS6FdOR8mtn1y2jUmh-13" value="&lt;div&gt;false&lt;/div&gt;" style="edgeStyle=orthogonalEdgeStyle;rounded=0;orthogonalLoop=1;jettySize=auto;html=1;" parent="1" source="wNUS6FdOR8mtn1y2jUmh-7" target="wNUS6FdOR8mtn1y2jUmh-12" edge="1">
          <mxGeometry relative="1" as="geometry" />
        </mxCell>
        <mxCell id="wNUS6FdOR8mtn1y2jUmh-7" value="is morning" style="strokeWidth=2;html=1;shape=mxgraph.flowchart.decision;whiteSpace=wrap;" parent="1" vertex="1">
          <mxGeometry x="314" y="400" width="100" height="100" as="geometry" />
        </mxCell>
        <mxCell id="wNUS6FdOR8mtn1y2jUmh-15" style="edgeStyle=orthogonalEdgeStyle;rounded=0;orthogonalLoop=1;jettySize=auto;html=1;entryX=0;entryY=0.5;entryDx=0;entryDy=0;entryPerimeter=0;" parent="1" source="wNUS6FdOR8mtn1y2jUmh-9" target="wNUS6FdOR8mtn1y2jUmh-14" edge="1">
          <mxGeometry relative="1" as="geometry">
            <Array as="points">
              <mxPoint x="160" y="710" />
            </Array>
          </mxGeometry>
        </mxCell>
        <mxCell id="wNUS6FdOR8mtn1y2jUmh-9" value="Write &quot;Good morning&quot;" style="rounded=1;whiteSpace=wrap;html=1;absoluteArcSize=1;arcSize=14;strokeWidth=2;" parent="1" vertex="1">
          <mxGeometry x="110" y="400" width="100" height="100" as="geometry" />
        </mxCell>
        <mxCell id="wNUS6FdOR8mtn1y2jUmh-16" style="edgeStyle=orthogonalEdgeStyle;rounded=0;orthogonalLoop=1;jettySize=auto;html=1;entryX=1;entryY=0.5;entryDx=0;entryDy=0;entryPerimeter=0;" parent="1" source="wNUS6FdOR8mtn1y2jUmh-12" target="wNUS6FdOR8mtn1y2jUmh-14" edge="1">
          <mxGeometry relative="1" as="geometry">
            <Array as="points">
              <mxPoint x="600" y="710" />
            </Array>
          </mxGeometry>
        </mxCell>
        <mxCell id="wNUS6FdOR8mtn1y2jUmh-12" value="Write &quot;Good day&quot;" style="rounded=1;whiteSpace=wrap;html=1;absoluteArcSize=1;arcSize=14;strokeWidth=2;" parent="1" vertex="1">
          <mxGeometry x="560" y="400" width="100" height="100" as="geometry" />
        </mxCell>
        <mxCell id="wNUS6FdOR8mtn1y2jUmh-14" value="End" style="strokeWidth=2;html=1;shape=mxgraph.flowchart.terminator;whiteSpace=wrap;" parent="1" vertex="1">
          <mxGeometry x="314" y="680" width="100" height="60" as="geometry" />
        </mxCell>
        <mxCell id="ftzjLBgZNZGpAym3wlFw-1" value="&lt;div&gt;if (isMorning) {&lt;/div&gt;&lt;div&gt;&amp;nbsp;&amp;nbsp;&amp;nbsp; console.log(&quot;Good morning&quot;);&lt;/div&gt;&lt;div&gt;} else {&lt;/div&gt;&lt;div&gt;&amp;nbsp;&amp;nbsp;&amp;nbsp; console.log(&quot;Good day&quot;);&lt;/div&gt;&lt;div&gt;}&lt;br&gt;&lt;/div&gt;" style="text;html=1;align=left;verticalAlign=middle;resizable=0;points=[];autosize=1;strokeColor=none;" parent="1" vertex="1">
          <mxGeometry x="530" y="230" width="190" height="80" as="geometry" />
        </mxCell>
      </root>
    </mxGraphModel>
  </diagram>
  <diagram name="Buy bread" id="WavWvkCAXRa1i_9AfO5F">
    <mxGraphModel dx="1422" dy="781" grid="1" gridSize="10" guides="1" tooltips="1" connect="1" arrows="1" fold="1" page="1" pageScale="1" pageWidth="827" pageHeight="1169" math="0" shadow="0">
      <root>
        <mxCell id="6FgMODrh_we2EhlMn0q0-0" />
        <mxCell id="6FgMODrh_we2EhlMn0q0-1" parent="6FgMODrh_we2EhlMn0q0-0" />
        <mxCell id="msH5zjxl-tBevuuSO7mj-2" value="true" style="edgeStyle=orthogonalEdgeStyle;rounded=0;orthogonalLoop=1;jettySize=auto;html=1;" parent="6FgMODrh_we2EhlMn0q0-1" source="6FgMODrh_we2EhlMn0q0-2" target="msH5zjxl-tBevuuSO7mj-1" edge="1">
          <mxGeometry relative="1" as="geometry" />
        </mxCell>
        <mxCell id="msH5zjxl-tBevuuSO7mj-3" value="false" style="edgeStyle=orthogonalEdgeStyle;rounded=0;orthogonalLoop=1;jettySize=auto;html=1;entryX=0;entryY=0.5;entryDx=0;entryDy=0;entryPerimeter=0;" parent="6FgMODrh_we2EhlMn0q0-1" source="6FgMODrh_we2EhlMn0q0-2" target="6FgMODrh_we2EhlMn0q0-5" edge="1">
          <mxGeometry relative="1" as="geometry" />
        </mxCell>
        <mxCell id="6FgMODrh_we2EhlMn0q0-2" value="Shop has bread" style="strokeWidth=2;html=1;shape=mxgraph.flowchart.decision;whiteSpace=wrap;" parent="6FgMODrh_we2EhlMn0q0-1" vertex="1">
          <mxGeometry x="330" y="380" width="100" height="100" as="geometry" />
        </mxCell>
        <mxCell id="6FgMODrh_we2EhlMn0q0-3" value="Process" style="rounded=1;whiteSpace=wrap;html=1;absoluteArcSize=1;arcSize=14;strokeWidth=2;" parent="6FgMODrh_we2EhlMn0q0-1" vertex="1">
          <mxGeometry x="210" y="40" width="100" height="100" as="geometry" />
        </mxCell>
        <mxCell id="6FgMODrh_we2EhlMn0q0-4" value="Start" style="strokeWidth=2;html=1;shape=mxgraph.flowchart.start_2;whiteSpace=wrap;" parent="6FgMODrh_we2EhlMn0q0-1" vertex="1">
          <mxGeometry x="364" y="40" width="100" height="100" as="geometry" />
        </mxCell>
        <mxCell id="6FgMODrh_we2EhlMn0q0-5" value="End" style="strokeWidth=2;html=1;shape=mxgraph.flowchart.terminator;whiteSpace=wrap;" parent="6FgMODrh_we2EhlMn0q0-1" vertex="1">
          <mxGeometry x="590" y="400" width="100" height="60" as="geometry" />
        </mxCell>
        <mxCell id="6FgMODrh_we2EhlMn0q0-17" style="edgeStyle=orthogonalEdgeStyle;rounded=0;orthogonalLoop=1;jettySize=auto;html=1;" parent="6FgMODrh_we2EhlMn0q0-1" source="6FgMODrh_we2EhlMn0q0-16" target="6FgMODrh_we2EhlMn0q0-2" edge="1">
          <mxGeometry relative="1" as="geometry" />
        </mxCell>
        <mxCell id="6FgMODrh_we2EhlMn0q0-16" value="Start" style="strokeWidth=2;html=1;shape=mxgraph.flowchart.start_2;whiteSpace=wrap;" parent="6FgMODrh_we2EhlMn0q0-1" vertex="1">
          <mxGeometry x="330" y="200" width="100" height="100" as="geometry" />
        </mxCell>
        <mxCell id="msH5zjxl-tBevuuSO7mj-0" value="Decision" style="strokeWidth=2;html=1;shape=mxgraph.flowchart.decision;whiteSpace=wrap;" parent="6FgMODrh_we2EhlMn0q0-1" vertex="1">
          <mxGeometry x="40" y="40" width="100" height="100" as="geometry" />
        </mxCell>
        <mxCell id="msH5zjxl-tBevuuSO7mj-4" style="edgeStyle=orthogonalEdgeStyle;rounded=0;orthogonalLoop=1;jettySize=auto;html=1;entryX=0.5;entryY=1;entryDx=0;entryDy=0;entryPerimeter=0;" parent="6FgMODrh_we2EhlMn0q0-1" source="msH5zjxl-tBevuuSO7mj-1" target="6FgMODrh_we2EhlMn0q0-2" edge="1">
          <mxGeometry relative="1" as="geometry">
            <Array as="points">
              <mxPoint x="160" y="570" />
              <mxPoint x="380" y="570" />
            </Array>
          </mxGeometry>
        </mxCell>
        <mxCell id="msH5zjxl-tBevuuSO7mj-1" value="Buy 1 piece of bread" style="rounded=1;whiteSpace=wrap;html=1;absoluteArcSize=1;arcSize=14;strokeWidth=2;" parent="6FgMODrh_we2EhlMn0q0-1" vertex="1">
          <mxGeometry x="100" y="380" width="100" height="100" as="geometry" />
        </mxCell>
        <mxCell id="7EnZ2ab179CBCZkg-KlF-0" value="End" style="strokeWidth=2;html=1;shape=mxgraph.flowchart.terminator;whiteSpace=wrap;" parent="6FgMODrh_we2EhlMn0q0-1" vertex="1">
          <mxGeometry x="540" y="60" width="100" height="60" as="geometry" />
        </mxCell>
        <mxCell id="7EnZ2ab179CBCZkg-KlF-1" value="&lt;div&gt;while (shop.hasBread()) {&lt;/div&gt;&lt;div&gt;&amp;nbsp;&amp;nbsp;&amp;nbsp; buyOnePieceOfBread();&lt;br&gt;&lt;/div&gt;&lt;div&gt;}&lt;br&gt;&lt;/div&gt;" style="text;html=1;align=left;verticalAlign=middle;resizable=0;points=[];autosize=1;strokeColor=none;" parent="6FgMODrh_we2EhlMn0q0-1" vertex="1">
          <mxGeometry x="540" y="175" width="160" height="50" as="geometry" />
        </mxCell>
      </root>
    </mxGraphModel>
  </diagram>
  <diagram name="Line of stars" id="p4W7nrzcCYBFfy-iRy0a">
    <mxGraphModel dx="1422" dy="781" grid="1" gridSize="10" guides="1" tooltips="1" connect="1" arrows="1" fold="1" page="1" pageScale="1" pageWidth="827" pageHeight="1169" math="0" shadow="0">
      <root>
        <mxCell id="DqWse3bgvRG8Bnr3TOvx-0" />
        <mxCell id="DqWse3bgvRG8Bnr3TOvx-1" parent="DqWse3bgvRG8Bnr3TOvx-0" />
        <mxCell id="DqWse3bgvRG8Bnr3TOvx-2" value="true" style="edgeStyle=orthogonalEdgeStyle;rounded=0;orthogonalLoop=1;jettySize=auto;html=1;" parent="DqWse3bgvRG8Bnr3TOvx-1" source="DqWse3bgvRG8Bnr3TOvx-4" target="DqWse3bgvRG8Bnr3TOvx-12" edge="1">
          <mxGeometry relative="1" as="geometry" />
        </mxCell>
        <mxCell id="DqWse3bgvRG8Bnr3TOvx-3" value="false" style="edgeStyle=orthogonalEdgeStyle;rounded=0;orthogonalLoop=1;jettySize=auto;html=1;entryX=0;entryY=0.5;entryDx=0;entryDy=0;entryPerimeter=0;" parent="DqWse3bgvRG8Bnr3TOvx-1" source="DqWse3bgvRG8Bnr3TOvx-4" target="DqWse3bgvRG8Bnr3TOvx-7" edge="1">
          <mxGeometry relative="1" as="geometry" />
        </mxCell>
        <mxCell id="DqWse3bgvRG8Bnr3TOvx-4" value="counter &amp;lt; 10" style="strokeWidth=2;html=1;shape=mxgraph.flowchart.decision;whiteSpace=wrap;" parent="DqWse3bgvRG8Bnr3TOvx-1" vertex="1">
          <mxGeometry x="330" y="550" width="100" height="100" as="geometry" />
        </mxCell>
        <mxCell id="jE8JfjqD0nyGsPPF13w--1" value="" style="edgeStyle=orthogonalEdgeStyle;rounded=0;orthogonalLoop=1;jettySize=auto;html=1;" parent="DqWse3bgvRG8Bnr3TOvx-1" source="DqWse3bgvRG8Bnr3TOvx-5" target="DqWse3bgvRG8Bnr3TOvx-4" edge="1">
          <mxGeometry relative="1" as="geometry" />
        </mxCell>
        <mxCell id="DqWse3bgvRG8Bnr3TOvx-5" value="Initialise counter to 0" style="rounded=1;whiteSpace=wrap;html=1;absoluteArcSize=1;arcSize=14;strokeWidth=2;" parent="DqWse3bgvRG8Bnr3TOvx-1" vertex="1">
          <mxGeometry x="330" y="360" width="100" height="100" as="geometry" />
        </mxCell>
        <mxCell id="DqWse3bgvRG8Bnr3TOvx-6" value="Start" style="strokeWidth=2;html=1;shape=mxgraph.flowchart.start_2;whiteSpace=wrap;" parent="DqWse3bgvRG8Bnr3TOvx-1" vertex="1">
          <mxGeometry x="364" y="40" width="100" height="100" as="geometry" />
        </mxCell>
        <mxCell id="DqWse3bgvRG8Bnr3TOvx-7" value="End" style="strokeWidth=2;html=1;shape=mxgraph.flowchart.terminator;whiteSpace=wrap;" parent="DqWse3bgvRG8Bnr3TOvx-1" vertex="1">
          <mxGeometry x="590" y="570" width="100" height="60" as="geometry" />
        </mxCell>
        <mxCell id="DqWse3bgvRG8Bnr3TOvx-8" style="edgeStyle=orthogonalEdgeStyle;rounded=0;orthogonalLoop=1;jettySize=auto;html=1;" parent="DqWse3bgvRG8Bnr3TOvx-1" source="DqWse3bgvRG8Bnr3TOvx-9" edge="1">
          <mxGeometry relative="1" as="geometry">
            <mxPoint x="380" y="360" as="targetPoint" />
          </mxGeometry>
        </mxCell>
        <mxCell id="DqWse3bgvRG8Bnr3TOvx-9" value="Start" style="strokeWidth=2;html=1;shape=mxgraph.flowchart.start_2;whiteSpace=wrap;" parent="DqWse3bgvRG8Bnr3TOvx-1" vertex="1">
          <mxGeometry x="330" y="200" width="100" height="100" as="geometry" />
        </mxCell>
        <mxCell id="DqWse3bgvRG8Bnr3TOvx-10" value="Decision" style="strokeWidth=2;html=1;shape=mxgraph.flowchart.decision;whiteSpace=wrap;" parent="DqWse3bgvRG8Bnr3TOvx-1" vertex="1">
          <mxGeometry x="40" y="40" width="100" height="100" as="geometry" />
        </mxCell>
        <mxCell id="jE8JfjqD0nyGsPPF13w--4" value="" style="edgeStyle=orthogonalEdgeStyle;rounded=0;orthogonalLoop=1;jettySize=auto;html=1;" parent="DqWse3bgvRG8Bnr3TOvx-1" source="DqWse3bgvRG8Bnr3TOvx-12" target="jE8JfjqD0nyGsPPF13w--3" edge="1">
          <mxGeometry relative="1" as="geometry" />
        </mxCell>
        <mxCell id="DqWse3bgvRG8Bnr3TOvx-12" value="write one *" style="rounded=1;whiteSpace=wrap;html=1;absoluteArcSize=1;arcSize=14;strokeWidth=2;" parent="DqWse3bgvRG8Bnr3TOvx-1" vertex="1">
          <mxGeometry x="100" y="550" width="100" height="100" as="geometry" />
        </mxCell>
        <mxCell id="DqWse3bgvRG8Bnr3TOvx-13" value="End" style="strokeWidth=2;html=1;shape=mxgraph.flowchart.terminator;whiteSpace=wrap;" parent="DqWse3bgvRG8Bnr3TOvx-1" vertex="1">
          <mxGeometry x="540" y="60" width="100" height="60" as="geometry" />
        </mxCell>
        <mxCell id="DqWse3bgvRG8Bnr3TOvx-14" value="&lt;div&gt;let counter = 0;&lt;br&gt;&lt;/div&gt;&lt;div&gt;while (counter &amp;lt; 10) {&lt;/div&gt;&lt;div&gt;&amp;nbsp;&amp;nbsp;&amp;nbsp; console.log(&#39;*&#39;);&lt;/div&gt;&lt;div&gt;&amp;nbsp;&amp;nbsp;&amp;nbsp; counter = counter + 1;&lt;br&gt;&lt;/div&gt;&lt;div&gt;}&lt;br&gt;&lt;/div&gt;" style="text;html=1;align=left;verticalAlign=middle;resizable=0;points=[];autosize=1;strokeColor=none;" parent="DqWse3bgvRG8Bnr3TOvx-1" vertex="1">
          <mxGeometry x="540" y="160" width="150" height="80" as="geometry" />
        </mxCell>
        <mxCell id="jE8JfjqD0nyGsPPF13w--2" value="Process" style="rounded=1;whiteSpace=wrap;html=1;absoluteArcSize=1;arcSize=14;strokeWidth=2;" parent="DqWse3bgvRG8Bnr3TOvx-1" vertex="1">
          <mxGeometry x="200" y="40" width="100" height="100" as="geometry" />
        </mxCell>
        <mxCell id="jE8JfjqD0nyGsPPF13w--5" style="edgeStyle=orthogonalEdgeStyle;rounded=0;orthogonalLoop=1;jettySize=auto;html=1;entryX=0.5;entryY=1;entryDx=0;entryDy=0;entryPerimeter=0;" parent="DqWse3bgvRG8Bnr3TOvx-1" source="jE8JfjqD0nyGsPPF13w--3" target="DqWse3bgvRG8Bnr3TOvx-4" edge="1">
          <mxGeometry relative="1" as="geometry" />
        </mxCell>
        <mxCell id="jE8JfjqD0nyGsPPF13w--3" value="Increment the counter by 1" style="rounded=1;whiteSpace=wrap;html=1;absoluteArcSize=1;arcSize=14;strokeWidth=2;" parent="DqWse3bgvRG8Bnr3TOvx-1" vertex="1">
          <mxGeometry x="100" y="740" width="100" height="100" as="geometry" />
        </mxCell>
      </root>
    </mxGraphModel>
  </diagram>
  <diagram id="r1QrRiqv8Yw6g9XOdqj7" name="Stardash">
    <mxGraphModel dx="1422" dy="781" grid="1" gridSize="10" guides="1" tooltips="1" connect="1" arrows="1" fold="1" page="1" pageScale="1" pageWidth="827" pageHeight="1169" math="0" shadow="0">
      <root>
        <mxCell id="m4nPwGEj-3W61fiVQZei-0" />
        <mxCell id="m4nPwGEj-3W61fiVQZei-1" parent="m4nPwGEj-3W61fiVQZei-0" />
        <mxCell id="yTi6UgXoOPObckNXC-Yf-0" value="true" style="edgeStyle=orthogonalEdgeStyle;rounded=0;orthogonalLoop=1;jettySize=auto;html=1;entryX=0.5;entryY=0;entryDx=0;entryDy=0;entryPerimeter=0;" parent="m4nPwGEj-3W61fiVQZei-1" source="yTi6UgXoOPObckNXC-Yf-2" target="yTi6UgXoOPObckNXC-Yf-17" edge="1">
          <mxGeometry relative="1" as="geometry">
            <mxPoint x="250" y="570" as="targetPoint" />
          </mxGeometry>
        </mxCell>
        <mxCell id="yTi6UgXoOPObckNXC-Yf-1" value="false" style="edgeStyle=orthogonalEdgeStyle;rounded=0;orthogonalLoop=1;jettySize=auto;html=1;entryX=0;entryY=0.5;entryDx=0;entryDy=0;entryPerimeter=0;" parent="m4nPwGEj-3W61fiVQZei-1" source="yTi6UgXoOPObckNXC-Yf-2" target="yTi6UgXoOPObckNXC-Yf-6" edge="1">
          <mxGeometry relative="1" as="geometry" />
        </mxCell>
        <mxCell id="yTi6UgXoOPObckNXC-Yf-2" value="counter &amp;lt; 10" style="strokeWidth=2;html=1;shape=mxgraph.flowchart.decision;whiteSpace=wrap;" parent="m4nPwGEj-3W61fiVQZei-1" vertex="1">
          <mxGeometry x="330" y="550" width="100" height="100" as="geometry" />
        </mxCell>
        <mxCell id="yTi6UgXoOPObckNXC-Yf-3" value="" style="edgeStyle=orthogonalEdgeStyle;rounded=0;orthogonalLoop=1;jettySize=auto;html=1;" parent="m4nPwGEj-3W61fiVQZei-1" source="yTi6UgXoOPObckNXC-Yf-4" target="yTi6UgXoOPObckNXC-Yf-2" edge="1">
          <mxGeometry relative="1" as="geometry" />
        </mxCell>
        <mxCell id="yTi6UgXoOPObckNXC-Yf-4" value="Initialise counter to 0" style="rounded=1;whiteSpace=wrap;html=1;absoluteArcSize=1;arcSize=14;strokeWidth=2;" parent="m4nPwGEj-3W61fiVQZei-1" vertex="1">
          <mxGeometry x="330" y="360" width="100" height="100" as="geometry" />
        </mxCell>
        <mxCell id="yTi6UgXoOPObckNXC-Yf-5" value="Start" style="strokeWidth=2;html=1;shape=mxgraph.flowchart.start_2;whiteSpace=wrap;" parent="m4nPwGEj-3W61fiVQZei-1" vertex="1">
          <mxGeometry x="364" y="40" width="100" height="100" as="geometry" />
        </mxCell>
        <mxCell id="yTi6UgXoOPObckNXC-Yf-6" value="End" style="strokeWidth=2;html=1;shape=mxgraph.flowchart.terminator;whiteSpace=wrap;" parent="m4nPwGEj-3W61fiVQZei-1" vertex="1">
          <mxGeometry x="590" y="570" width="100" height="60" as="geometry" />
        </mxCell>
        <mxCell id="yTi6UgXoOPObckNXC-Yf-7" style="edgeStyle=orthogonalEdgeStyle;rounded=0;orthogonalLoop=1;jettySize=auto;html=1;" parent="m4nPwGEj-3W61fiVQZei-1" source="yTi6UgXoOPObckNXC-Yf-8" edge="1">
          <mxGeometry relative="1" as="geometry">
            <mxPoint x="380" y="360" as="targetPoint" />
          </mxGeometry>
        </mxCell>
        <mxCell id="yTi6UgXoOPObckNXC-Yf-8" value="Start" style="strokeWidth=2;html=1;shape=mxgraph.flowchart.start_2;whiteSpace=wrap;" parent="m4nPwGEj-3W61fiVQZei-1" vertex="1">
          <mxGeometry x="330" y="200" width="100" height="100" as="geometry" />
        </mxCell>
        <mxCell id="yTi6UgXoOPObckNXC-Yf-9" value="Decision" style="strokeWidth=2;html=1;shape=mxgraph.flowchart.decision;whiteSpace=wrap;" parent="m4nPwGEj-3W61fiVQZei-1" vertex="1">
          <mxGeometry x="40" y="40" width="100" height="100" as="geometry" />
        </mxCell>
        <mxCell id="yTi6UgXoOPObckNXC-Yf-10" value="" style="edgeStyle=orthogonalEdgeStyle;rounded=0;orthogonalLoop=1;jettySize=auto;html=1;exitX=0.5;exitY=1;exitDx=0;exitDy=0;entryX=0;entryY=0.5;entryDx=0;entryDy=0;" parent="m4nPwGEj-3W61fiVQZei-1" source="yTi6UgXoOPObckNXC-Yf-11" target="yTi6UgXoOPObckNXC-Yf-16" edge="1">
          <mxGeometry relative="1" as="geometry" />
        </mxCell>
        <mxCell id="yTi6UgXoOPObckNXC-Yf-11" value="write one -" style="rounded=1;whiteSpace=wrap;html=1;absoluteArcSize=1;arcSize=14;strokeWidth=2;" parent="m4nPwGEj-3W61fiVQZei-1" vertex="1">
          <mxGeometry x="10" y="890" width="100" height="100" as="geometry" />
        </mxCell>
        <mxCell id="yTi6UgXoOPObckNXC-Yf-12" value="End" style="strokeWidth=2;html=1;shape=mxgraph.flowchart.terminator;whiteSpace=wrap;" parent="m4nPwGEj-3W61fiVQZei-1" vertex="1">
          <mxGeometry x="540" y="60" width="100" height="60" as="geometry" />
        </mxCell>
        <mxCell id="yTi6UgXoOPObckNXC-Yf-13" value="&lt;div&gt;let counter = 0;&lt;br&gt;&lt;/div&gt;&lt;div&gt;while (counter &amp;lt; 10) {&lt;/div&gt;&lt;div&gt;&amp;nbsp;&amp;nbsp;&amp;nbsp; console.log(&#39;*&#39;);&lt;/div&gt;&lt;div&gt;&amp;nbsp;&amp;nbsp;&amp;nbsp; counter = counter + 1;&lt;br&gt;&lt;/div&gt;&lt;div&gt;}&lt;br&gt;&lt;/div&gt;" style="text;html=1;align=left;verticalAlign=middle;resizable=0;points=[];autosize=1;strokeColor=none;" parent="m4nPwGEj-3W61fiVQZei-1" vertex="1">
          <mxGeometry x="540" y="160" width="150" height="80" as="geometry" />
        </mxCell>
        <mxCell id="yTi6UgXoOPObckNXC-Yf-14" value="Process" style="rounded=1;whiteSpace=wrap;html=1;absoluteArcSize=1;arcSize=14;strokeWidth=2;" parent="m4nPwGEj-3W61fiVQZei-1" vertex="1">
          <mxGeometry x="200" y="40" width="100" height="100" as="geometry" />
        </mxCell>
        <mxCell id="yTi6UgXoOPObckNXC-Yf-15" style="edgeStyle=orthogonalEdgeStyle;rounded=0;orthogonalLoop=1;jettySize=auto;html=1;entryX=0.5;entryY=1;entryDx=0;entryDy=0;entryPerimeter=0;" parent="m4nPwGEj-3W61fiVQZei-1" source="yTi6UgXoOPObckNXC-Yf-16" target="yTi6UgXoOPObckNXC-Yf-2" edge="1">
          <mxGeometry relative="1" as="geometry" />
        </mxCell>
        <mxCell id="yTi6UgXoOPObckNXC-Yf-16" value="Increment the counter by 1" style="rounded=1;whiteSpace=wrap;html=1;absoluteArcSize=1;arcSize=14;strokeWidth=2;" parent="m4nPwGEj-3W61fiVQZei-1" vertex="1">
          <mxGeometry x="150" y="1090" width="100" height="100" as="geometry" />
        </mxCell>
        <mxCell id="yTi6UgXoOPObckNXC-Yf-18" value="true" style="edgeStyle=orthogonalEdgeStyle;rounded=0;orthogonalLoop=1;jettySize=auto;html=1;entryX=0.5;entryY=0;entryDx=0;entryDy=0;exitX=0;exitY=0.5;exitDx=0;exitDy=0;exitPerimeter=0;" parent="m4nPwGEj-3W61fiVQZei-1" source="yTi6UgXoOPObckNXC-Yf-17" target="yTi6UgXoOPObckNXC-Yf-11" edge="1">
          <mxGeometry relative="1" as="geometry">
            <Array as="points">
              <mxPoint x="60" y="700" />
            </Array>
          </mxGeometry>
        </mxCell>
        <mxCell id="yTi6UgXoOPObckNXC-Yf-20" value="false" style="edgeStyle=orthogonalEdgeStyle;rounded=0;orthogonalLoop=1;jettySize=auto;html=1;entryX=0.5;entryY=0;entryDx=0;entryDy=0;" parent="m4nPwGEj-3W61fiVQZei-1" source="yTi6UgXoOPObckNXC-Yf-17" target="yTi6UgXoOPObckNXC-Yf-19" edge="1">
          <mxGeometry relative="1" as="geometry" />
        </mxCell>
        <mxCell id="yTi6UgXoOPObckNXC-Yf-17" value="counter is odd" style="strokeWidth=2;html=1;shape=mxgraph.flowchart.decision;whiteSpace=wrap;" parent="m4nPwGEj-3W61fiVQZei-1" vertex="1">
          <mxGeometry x="130" y="650" width="100" height="100" as="geometry" />
        </mxCell>
        <mxCell id="yTi6UgXoOPObckNXC-Yf-21" style="edgeStyle=orthogonalEdgeStyle;rounded=0;orthogonalLoop=1;jettySize=auto;html=1;entryX=0.5;entryY=0;entryDx=0;entryDy=0;" parent="m4nPwGEj-3W61fiVQZei-1" source="yTi6UgXoOPObckNXC-Yf-19" target="yTi6UgXoOPObckNXC-Yf-16" edge="1">
          <mxGeometry relative="1" as="geometry" />
        </mxCell>
        <mxCell id="yTi6UgXoOPObckNXC-Yf-19" value="&lt;div&gt;write one *&lt;/div&gt;" style="rounded=1;whiteSpace=wrap;html=1;absoluteArcSize=1;arcSize=14;strokeWidth=2;" parent="m4nPwGEj-3W61fiVQZei-1" vertex="1">
          <mxGeometry x="250" y="880" width="100" height="100" as="geometry" />
        </mxCell>
      </root>
    </mxGraphModel>
  </diagram>
</mxfile>
